<svg fill="none" height="56" viewBox="0 0 326 55" width="326"
  xmlns="http://www.w3.org/2000/svg"
  xmlns:xlink="http://www.w3.org/1999/xlink">
  <linearGradient id="a" gradientUnits="userSpaceOnUse" x1="8.87248" x2="8.87248" y1="13.9339" y2="35.1337">
    <stop offset="0" stop-color="#009dc8"/>
    <stop offset="1" stop-color="#01649e"/>
  </linearGradient>
  <linearGradient id="b" gradientUnits="userSpaceOnUse" x1="15.8906" x2="15.8906" y1="18.8954" y2="30.0216">
    <stop offset="0" stop-color="#03639b"/>
    <stop offset="1" stop-color="#3c5983"/>
  </linearGradient>
  <linearGradient id="c" gradientUnits="userSpaceOnUse" x1="35.4577" x2="35.4577" y1="18.8953" y2="30.0215">
    <stop offset="0" stop-color="#e949c7"/>
    <stop offset="1" stop-color="#cd2592"/>
  </linearGradient>
  <linearGradient id="d" gradientUnits="userSpaceOnUse" x1="42.03" x2="42.03" y1="13.9356" y2="35.1355">
    <stop offset="0" stop-color="#cc258e"/>
    <stop offset="1" stop-color="#f65e50"/>
  </linearGradient>
  <linearGradient id="e" gradientUnits="userSpaceOnUse" x1="1.92742" x2="49.9098" y1="4.83841" y2="44.8965">
    <stop offset="0" stop-color="#00bcee"/>
    <stop offset="1" stop-color="#002d7e"/>
  </linearGradient>
  <linearGradient id="f" gradientUnits="userSpaceOnUse" x1="1.55309" x2="1.55309" y1="14.6853" y2="34.3816">
    <stop offset="0" stop-color="#78afff"/>
    <stop offset="1" stop-color="#06a0cc"/>
  </linearGradient>
  <linearGradient id="g" gradientUnits="userSpaceOnUse" x1="48.7518" x2="48.7518" y1="14.6854" y2="33.7803">
    <stop offset="0" stop-color="#f6634e"/>
    <stop offset="1" stop-color="#ffc006"/>
  </linearGradient>
  <clipPath id="h">
    <path d="m.293945 6h49.7175v38.0952h-49.7175z"/>
  </clipPath>
  <g clip-path="url(#h)">
    <path d="m10.1075 33.8259v-18.669c0-.7048-.56747-1.276-1.2676-1.276-.70005 0-1.26763.5712-1.26763 1.276v18.669c0 .7047.56758 1.276 1.26763 1.276.70013 0 1.2676-.5713 1.2676-1.276z" fill="url(#a)"/>
    <path d="m17.133 28.7733v-8.5637c0-.7047-.5676-1.276-1.2677-1.276s-1.2676.5713-1.2676 1.276v8.5637c0 .7048.5675 1.276 1.2676 1.276s1.2677-.5712 1.2677-1.276z" fill="url(#b)"/>
    <path d="m36.7091 28.7734v-8.5638c0-.7047-.5675-1.276-1.2676-1.276s-1.2677.5713-1.2677 1.276v8.5638c0 .7047.5676 1.276 1.2677 1.276s1.2676-.5713 1.2676-1.276z" fill="url(#c)"/>
    <path d="m43.2345 33.8278v-18.6689c0-.7048-.5675-1.2761-1.2676-1.2761-.7002 0-1.2677.5713-1.2677 1.2761v18.6689c0 .7048.5675 1.2761 1.2677 1.2761.7001 0 1.2676-.5713 1.2676-1.2761z" fill="url(#d)"/>
    <path d="m1.13672 39.5346h1.82129c9.01539 0 17.00639-5.8314 20.15839-14.5362-3.1182-8.7075-11.146-14.5271-20.15839-14.5271h-1.82129v-4.4713h1.82129c9.41919 0 17.94259 5.2945 22.46169 13.5616 4.5256-8.1727 13.033-13.5616 22.4315-13.5616h1.8213v4.4713h-1.8213c-9.2558 0-17.3126 6.1033-20.4001 15.2386-3.6814 10.8923-13.3803 18.2959-24.49309 18.2959h-1.82129zm26.20098-6.0366c.8826-1.5771 1.6194-3.2559 2.1875-5.0223l-.0916.279c3.8314 6.5894 10.77 10.7799 18.4176 10.7799h1.8213v4.4712h-1.8213c-8.1124 0-15.5603-3.9274-20.3579-10.2986z" fill="url(#e)"/>
    <path d="m2.82926 33.0679v-17.1532c0-.7047-.56756-1.276-1.26766-1.276-.700106 0-1.267655.5713-1.267655 1.276v17.1532c0 .7047.567549 1.276 1.267655 1.276.7001 0 1.26766-.5713 1.26766-1.276z" fill="url(#f)"/>
    <path d="m50.0109 33.0679v-17.1532c0-.7047-.5675-1.276-1.2677-1.276-.7001 0-1.2676.5713-1.2676 1.276v17.1532c0 .7047.5675 1.276 1.2676 1.276.7002 0 1.2677-.5713 1.2677-1.276z" fill="url(#g)"/>
  </g>
  <g fill="#fff">
    <path d="m70.9736 8.69099c0-.43358.3551-.8238.8434-.8238h4.0837c.4439 0 .8434.39022.8434.8238v24.32391h11.3191c.4882 0 .8433.3903.8433.8239v3.5553c0 .4336-.3551.8238-.8433.8238h-16.2462c-.4883 0-.8434-.3902-.8434-.8238z"/>
    <path d="m91.6602 11.2925c0-1.90778 1.5092-3.42531 3.5066-3.42531 1.9975 0 3.5511 1.51753 3.5511 3.42531 0 1.9077-1.5536 3.4686-3.5511 3.4686-1.9974 0-3.5066-1.5609-3.5066-3.4686zm.7989 7.8478c0-.5636.4883-.9539.9766-.9539h3.5955c.4882 0 .9765.3903.9765.9539v18.1237c0 .5203-.4883.9539-.9765.9539h-3.5955c-.4883 0-.9766-.4336-.9766-.9539z"/>
    <path d="m101.51 19.3465c-.311-.6071-.044-1.1707.71-1.1707h4.217c.488 0 .755.2168.932.5636l4.262 9.8857h.088l4.528-9.8857c.266-.5203.71-.5636 1.287-.5636h3.729c.755 0 1.065.5636.71 1.1707l-9.233 18.8174c-.177.2602-.444.5203-.887.5203h-.267c-.444 0-.71-.2601-.888-.5203z"/>
    <path d="m124.684 11.2925c0-1.90778 1.509-3.42531 3.506-3.42531 1.998 0 3.551 1.51753 3.551 3.42531 0 1.9077-1.553 3.4686-3.551 3.4686-1.997 0-3.506-1.5609-3.506-3.4686zm.799 7.8478c0-.5636.488-.9539.976-.9539h3.596c.488 0 .976.3903.976.9539v18.1237c0 .5203-.488.9539-.976.9539h-3.596c-.488 0-.976-.4336-.976-.9539z"/>
    <path d="m136.711 18.9109c0-.4769.355-.9105 1.065-.9105 1.865 0 2.93 1.1273 3.196 2.6015 1.154-1.2141 3.063-2.8617 6.614-2.8617 6.525 0 8.212 4.2925 8.212 9.1486v10.3626c0 .5203-.488.9539-.977.9539h-3.595c-.533 0-.977-.4336-.977-.9539v-10.3626c0-2.6015-1.065-4.2057-3.551-4.2057-2.663 0-3.95 1.7343-4.439 3.1218v11.4465c0 .7371-.31.9539-1.287.9539h-3.285c-.488 0-.976-.4336-.976-.9539z"/>
    <path d="m170.446 48.1343c-3.374 0-6.392-1.5175-7.369-2.2546-.31-.2601-.443-.7804-.222-1.1273l1.332-2.8183c.178-.3902.755-.5203 1.199-.2601.754.4335 2.752 1.5175 4.882 1.5175 3.152 0 4.839-1.0406 4.839-4.7694v-.5637c-.932.3469-2.886.8238-4.927.8238-6.126 0-10.165-4.5959-10.165-10.4493 0-5.8533 4.217-10.4927 9.809-10.4927 3.196 0 5.371 1.6043 6.526 2.8183.31-1.4742 1.376-2.5581 3.24-2.5581.71 0 1.065.4336 1.065.9105v19.5112c0 6.4604-4.616 9.7122-10.209 9.7122zm4.661-22.6763c-.444-1.1273-1.865-2.7749-4.528-2.7749-3.196 0-4.838 2.7315-4.838 5.5498s1.731 5.5065 5.104 5.5065c2.575 0 4.262-1.1273 4.262-1.1273z"/>
    <path d="m197.924 8.69099c0-.43358.355-.8238.799-.8238h10.52c8.567 0 15.58 6.80721 15.58 15.13201s-7.013 15.2187-15.58 15.2187h-10.52c-.444 0-.799-.3902-.799-.8238zm10.786 24.23721c5.771 0 9.988-3.9889 9.988-9.929s-4.217-9.8857-9.988-9.8857h-5.06v19.8147z"/>
    <path d="m238.395 17.7402c5.327 0 9.411 3.8589 9.411 9.2787 0 .3035-.045.9972-.089 1.3007-.045.5203-.533.9106-.977.9106h-13.139c.045 2.4714 2.131 4.6393 5.105 4.6393 2.042 0 3.462-.7371 4.394-1.4742.489-.3902 1.021-.4336 1.332 0l1.731 2.2546c.355.3903.4.8672-.089 1.3008-1.775 1.4742-4.305 2.7315-7.634 2.7315-6.126 0-10.387-4.7694-10.387-10.4926 0-5.7233 4.261-10.4494 10.342-10.4494zm3.818 7.9346c-.089-1.9511-1.687-3.4687-3.951-3.4687-2.486 0-4.084 1.4742-4.35 3.4687z"/>
    <path d="m251.367 36.8612c-.267-.1734-.489-.6504-.267-1.084l1.332-2.6014c.222-.477.71-.6504 1.198-.3469.933.5636 2.397 1.3007 4.528 1.3007 1.554 0 2.264-.5636 2.264-1.4308 0-.9105-1.154-1.7343-3.862-2.7749-3.95-1.4742-5.726-3.2952-5.726-6.3303s2.353-5.8534 7.368-5.8534c3.019 0 4.972.7805 6.082 1.4742.444.3469.71.8672.444 1.3875l-1.155 2.298c-.31.4769-.843.5636-1.287.3902-.976-.4336-2.397-.9973-4.084-.9973-1.376 0-1.953.6504-1.953 1.3008 0 .9105 1.021 1.3875 2.93 2.1679 3.951 1.5609 6.791 2.9484 6.791 6.9373 0 3.1652-2.752 5.9834-7.901 5.9834-3.418 0-5.548-1.0405-6.702-1.821z"/>
    <path d="m269.523 11.2925c0-1.90778 1.51-3.42531 3.507-3.42531 1.998 0 3.551 1.51753 3.551 3.42531 0 1.9077-1.553 3.4686-3.551 3.4686-1.997 0-3.507-1.5609-3.507-3.4686zm.799 7.8478c0-.5636.489-.9539.977-.9539h3.595c.489 0 .977.3903.977.9539v18.1237c0 .5203-.488.9539-.977.9539h-3.595c-.488 0-.977-.4336-.977-.9539z"/>
    <path d="m290.728 48.1343c-3.373 0-6.392-1.5175-7.368-2.2546-.311-.2601-.444-.7804-.222-1.1273l1.331-2.8183c.178-.3902.755-.5203 1.199-.2601.754.4335 2.752 1.5175 4.883 1.5175 3.151 0 4.838-1.0406 4.838-4.7694v-.5637c-.932.3469-2.885.8238-4.927.8238-6.126 0-10.165-4.5959-10.165-10.4493 0-5.8533 4.217-10.4927 9.81-10.4927 3.196 0 5.371 1.6043 6.525 2.8183.311-1.4742 1.376-2.5581 3.24-2.5581.71 0 1.065.4336 1.065.9105v19.5112c0 6.4604-4.616 9.7122-10.209 9.7122zm4.661-22.6763c-.444-1.1273-1.864-2.7749-4.528-2.7749-3.196 0-4.838 2.7315-4.838 5.5498s1.731 5.5065 5.105 5.5065c2.574 0 4.261-1.1273 4.261-1.1273z"/>
    <path d="m306.619 18.9109c0-.4769.355-.9105 1.065-.9105 1.865 0 2.93 1.1273 3.196 2.6015 1.155-1.2141 3.063-2.8617 6.614-2.8617 6.525 0 8.212 4.2925 8.212 9.1486v10.3626c0 .5203-.488.9539-.976.9539h-3.596c-.533 0-.976-.4336-.976-.9539v-10.3626c0-2.6015-1.066-4.2057-3.551-4.2057-2.664 0-3.951 1.7343-4.439 3.1218v11.4465c0 .7371-.311.9539-1.288.9539h-3.284c-.489 0-.977-.4336-.977-.9539z"/>
  </g>
</svg>
