<svg fill="none" height="55" viewBox="0 0 364 55" width="364"
  xmlns="http://www.w3.org/2000/svg"
  xmlns:xlink="http://www.w3.org/1999/xlink">
  <linearGradient id="a" gradientUnits="userSpaceOnUse" x1="9.58125" x2="9.58125" y1="16.6228" y2="40.3022">
    <stop offset="0" stop-color="#009dc8"/>
    <stop offset="1" stop-color="#01649e"/>
  </linearGradient>
  <linearGradient id="b" gradientUnits="userSpaceOnUse" x1="17.4225" x2="17.4225" y1="22.1648" y2="34.5923">
    <stop offset="0" stop-color="#03639b"/>
    <stop offset="1" stop-color="#3c5983"/>
  </linearGradient>
  <linearGradient id="c" gradientUnits="userSpaceOnUse" x1="39.2778" x2="39.2778" y1="22.1648" y2="34.5922">
    <stop offset="0" stop-color="#e949c7"/>
    <stop offset="1" stop-color="#cd2592"/>
  </linearGradient>
  <linearGradient id="d" gradientUnits="userSpaceOnUse" x1="46.6185" x2="46.6185" y1="16.623" y2="40.3023">
    <stop offset="0" stop-color="#cc258e"/>
    <stop offset="1" stop-color="#f65e50"/>
  </linearGradient>
  <linearGradient id="e" gradientUnits="userSpaceOnUse" x1="1.82349" x2="55.4179" y1="6.46256" y2="51.2058">
    <stop offset="0" stop-color="#009ec8"/>
    <stop offset="1" stop-color="#031b47"/>
  </linearGradient>
  <linearGradient id="f" gradientUnits="userSpaceOnUse" x1="1.40641" x2="1.40641" y1="17.4626" y2="39.4626">
    <stop offset="0" stop-color="#78afff"/>
    <stop offset="1" stop-color="#06a0cc"/>
  </linearGradient>
  <linearGradient id="g" gradientUnits="userSpaceOnUse" x1="54.1261" x2="54.1261" y1="17.4626" y2="38.7909">
    <stop offset="0" stop-color="#f6634e"/>
    <stop offset="1" stop-color="#ffc006"/>
  </linearGradient>
  <clipPath id="h">
    <path d="m0 7.76001h55.5324v42.5508h-55.5324z"/>
  </clipPath>
  <path d="m81.7004 43.0956v-31.5113c0-.476.3808-.9044.9044-.9044h4.3792c.476 0 .9044.4284.9044.9044v26.7037h12.1376c.524 0 .905.4284.905.9044v3.9032c0 .476-.381.9044-.905.9044h-17.4212c-.5236 0-.9044-.4284-.9044-.9044zm21.5336-.1428v-19.8969c0-.6188.523-1.0472 1.047-1.0472h3.856c.523 0 1.047.4284 1.047 1.0472v19.8969c0 .5712-.524 1.0472-1.047 1.0472h-3.856c-.524 0-1.047-.476-1.047-1.0472zm2.903-24.7045c-2.142 0-3.76-1.7136-3.76-3.808s1.618-3.7604 3.76-3.7604c2.143 0 3.809 1.666 3.809 3.7604s-1.666 3.808-3.809 3.808zm15.158 25.7041-9.853-20.6585c-.334-.6664-.048-1.2852.761-1.2852h4.522c.524 0 .809.238 1 .6188l4.569 10.8529h.096l4.855-10.8529c.285-.5712.761-.6188 1.38-.6188h3.999c.809 0 1.142.6188.761 1.2852l-9.901 20.6585c-.19.2856-.476.5712-.952.5712h-.285c-.476 0-.762-.2856-.952-.5712zm14.361-.9996v-19.8969c0-.6188.524-1.0472 1.048-1.0472h3.855c.524 0 1.047.4284 1.047 1.0472v19.8969c0 .5712-.523 1.0472-1.047 1.0472h-3.855c-.524 0-1.048-.476-1.048-1.0472zm2.904-24.7045c-2.142 0-3.76-1.7136-3.76-3.808s1.618-3.7604 3.76-3.7604 3.808 1.666 3.808 3.7604-1.666 3.808-3.808 3.808zm7.636 24.7045v-20.1349c0-.5236.381-.9996 1.143-.9996 1.999 0 3.141 1.2376 3.427 2.856 1.238-1.3328 3.284-3.1416 7.092-3.1416 6.998 0 8.806 4.7124 8.806 10.0436v11.3765c0 .5712-.523 1.0472-1.047 1.0472h-3.855c-.572 0-1.048-.476-1.048-1.0472v-11.3765c0-2.856-1.142-4.6172-3.808-4.6172-2.856 0-4.236 1.904-4.76 3.4272v12.5665c0 .8092-.333 1.0472-1.38 1.0472h-3.522c-.524 0-1.048-.476-1.048-1.0472zm45.613 1.2852c0 7.0924-4.951 10.6624-10.949 10.6624-3.617 0-6.854-1.666-7.901-2.4752-.333-.2856-.476-.8568-.238-1.2376l1.428-3.094c.19-.4284.809-.5712 1.285-.2856.809.476 2.951 1.666 5.236 1.666 3.38 0 5.189-1.1424 5.189-5.236v-.6188c-1 .3808-3.094.9044-5.284.9044-6.569 0-10.901-5.0456-10.901-11.4716 0-6.6641 4.522-11.5193 10.52-11.5193 3.427 0 5.76 1.7612 6.997 3.094.334-1.6184 1.476-2.8084 3.475-2.8084.762 0 1.143.476 1.143.9996zm-5.95-6.3784v-7.8541c-.476-1.2376-2-3.0464-4.856-3.0464-3.427 0-5.188 2.9988-5.188 6.0929 0 3.094 1.856 6.0452 5.474 6.0452 2.761 0 4.57-1.2376 4.57-1.2376zm21.499 5.236v-31.5113c0-.476.381-.9044.857-.9044h11.281c9.187 0 16.708 7.4732 16.708 16.6124 0 9.2345-7.521 16.7077-16.708 16.7077h-11.281c-.476 0-.857-.4284-.857-.9044zm6.14-4.9028h5.427c6.188 0 10.71-4.3792 10.71-10.9005 0-6.4736-4.522-10.8528-10.71-10.8528h-5.427zm24.705-5.1884c0-6.1881 4.57-11.4717 11.091-11.4717 5.712 0 10.092 4.2364 10.092 10.1864 0 .3333-.048 1.0949-.096 1.4281-.047.5712-.571.9996-1.047.9996h-14.089c.047 2.7132 2.284 5.0932 5.474 5.0932 2.189 0 3.712-.8092 4.712-1.6184.524-.4284 1.095-.476 1.428 0l1.856 2.4752c.381.4284.429.952-.095 1.428-1.904 1.6184-4.617 2.9988-8.187 2.9988-6.569 0-11.139-5.236-11.139-11.5192zm6.284-2.7609h8.901c-.095-2.142-1.809-3.808-4.236-3.808-2.666 0-4.38 1.6184-4.665 3.808zm24.383 14.2801c-3.666 0-5.95-1.1424-7.188-1.9992-.286-.1904-.524-.714-.286-1.19l1.428-2.856c.238-.5236.762-.714 1.286-.3808.999.6188 2.57 1.428 4.855 1.428 1.666 0 2.427-.6188 2.427-1.5708 0-.9996-1.237-1.904-4.141-3.0464-4.236-1.6184-6.14-3.6177-6.14-6.9497s2.523-6.426 7.901-6.426c3.237 0 5.332.8568 6.522 1.6184.476.3808.761.952.476 1.5232l-1.238 2.5228c-.333.5236-.904.6188-1.38.4284-1.048-.476-2.571-1.0948-4.38-1.0948-1.475 0-2.094.714-2.094 1.428 0 .9996 1.095 1.5232 3.142 2.38 4.236 1.7137 7.282 3.2369 7.282 7.6161 0 3.4748-2.951 6.5688-8.472 6.5688zm11.642-1.5708v-19.8969c0-.6188.523-1.0472 1.047-1.0472h3.856c.523 0 1.047.4284 1.047 1.0472v19.8969c0 .5712-.524 1.0472-1.047 1.0472h-3.856c-.524 0-1.047-.476-1.047-1.0472zm2.903-24.7045c-2.142 0-3.76-1.7136-3.76-3.808s1.618-3.7604 3.76-3.7604 3.808 1.666 3.808 3.7604-1.666 3.808-3.808 3.808zm28.438 25.9897c0 7.0924-4.95 10.6624-10.948 10.6624-3.617 0-6.854-1.666-7.901-2.4752-.334-.2856-.476-.8568-.238-1.2376l1.428-3.094c.19-.4284.809-.5712 1.285-.2856.809.476 2.951 1.666 5.236 1.666 3.379 0 5.188-1.1424 5.188-5.236v-.6188c-.999.3808-3.094.9044-5.283.9044-6.569 0-10.901-5.0456-10.901-11.4716 0-6.6641 4.522-11.5193 10.52-11.5193 3.427 0 5.759 1.7612 6.997 3.094.333-1.6184 1.476-2.8084 3.475-2.8084.761 0 1.142.476 1.142.9996zm-5.95-6.3784v-7.8541c-.476-1.2376-1.999-3.0464-4.855-3.0464-3.427 0-5.188 2.9988-5.188 6.0929 0 3.094 1.856 6.0452 5.474 6.0452 2.76 0 4.569-1.2376 4.569-1.2376zm10.564 5.0932v-20.1349c0-.5236.381-.9996 1.143-.9996 1.999 0 3.141 1.2376 3.427 2.856 1.237-1.3328 3.284-3.1416 7.092-3.1416 6.997 0 8.806 4.7124 8.806 10.0436v11.3765c0 .5712-.523 1.0472-1.047 1.0472h-3.856c-.571 0-1.047-.476-1.047-1.0472v-11.3765c0-2.856-1.142-4.6172-3.808-4.6172-2.856 0-4.236 1.904-4.76 3.4272v12.5665c0 .8092-.333 1.0472-1.38 1.0472h-3.523c-.523 0-1.047-.476-1.047-1.0472z" fill="#000"/>
  <g clip-path="url(#h)">
    <path d="m10.9608 38.8414v-20.8525c0-.7872-.6339-1.4253-1.41594-1.4253-.78193 0-1.41589.6381-1.41589 1.4253v20.8525c0 .7871.63396 1.4253 1.41589 1.4253.78204 0 1.41594-.6382 1.41594-1.4253z" fill="url(#a)"/>
    <path d="m18.8102 33.1979v-9.5652c0-.7872-.634-1.4253-1.416-1.4253s-1.4159.6381-1.4159 1.4253v9.5652c0 .7872.6339 1.4253 1.4159 1.4253s1.416-.6381 1.416-1.4253z" fill="url(#b)"/>
    <path d="m40.6755 33.1981v-9.5653c0-.7871-.6339-1.4253-1.4159-1.4253-.7819 0-1.4159.6382-1.4159 1.4253v9.5653c0 .7872.634 1.4253 1.4159 1.4253.782 0 1.4159-.6381 1.4159-1.4253z" fill="url(#c)"/>
    <path d="m47.9638 38.8417v-20.8524c0-.7872-.6339-1.4253-1.4159-1.4253s-1.4159.6381-1.4159 1.4253v20.8524c0 .7872.6339 1.4253 1.4159 1.4253s1.4159-.6381 1.4159-1.4253z" fill="url(#d)"/>
    <path d="m.940308 45.2168h2.034312c10.06988 0 18.99548-6.5134 22.51608-16.2364-3.4829-9.7259-12.4496-16.2262-22.51608-16.2262h-2.034312v-4.99419h2.034312c10.52078 0 20.04118 5.91379 25.08878 15.14779 5.0549-9.1286 14.5573-15.14779 25.0551-15.14779h2.0343v4.99419h-2.0343c-10.3384 0-19.3375 6.8172-22.7861 17.0209-4.112 12.1663-14.9452 20.4359-27.35778 20.4359h-2.034312zm29.265392-6.7426c.9859-1.7616 1.8088-3.6368 2.4434-5.6097l-.1023.3115c4.2795 7.3602 12.0297 12.0408 20.5717 12.0408h2.0343v4.9942h-2.0343c-9.0612 0-17.3802-4.3868-22.739-11.5032z" fill="url(#e)"/>
    <path d="m2.83184 37.9952v-19.1594c0-.7872-.63393-1.4253-1.41592-1.4253-.781991 0-1.41592.6381-1.41592 1.4253v19.1594c0 .7872.633929 1.4253 1.41592 1.4253.78199 0 1.41592-.6381 1.41592-1.4253z" fill="url(#f)"/>
    <path d="m55.5324 37.9951v-19.1594c0-.7872-.6338-1.4253-1.4159-1.4253-.782 0-1.4159.6381-1.4159 1.4253v19.1594c0 .7872.6339 1.4253 1.4159 1.4253.7821 0 1.4159-.6381 1.4159-1.4253z" fill="url(#g)"/>
  </g>
</svg>
