<svg xmlns="http://www.w3.org/2000/svg" width="300" height="184" viewBox="0 0 600 368"><rect x="0" y="0" width="600" height="368" fill="white"></rect><g transform="translate(10,13)"><g transform="translate(691.38,1661.1)"><rect x="1" y="10.5" width="52" height="6" rx="3" fill="#B9AA98"></rect></g><g transform="translate(537.74,1218.1399999999999)"><rect x="1" y="10.5" width="52" height="6" rx="3" fill="#3D7FA6"></rect></g><g transform="translate(998.6600000000001,1218.1399999999999)"><rect x="1" y="10.5" width="52" height="6" rx="3" fill="#C3BB3D"></rect></g><g transform="translate(153.64000000000001,442.96)"><rect x="1" y="10.5" width="52" height="6" rx="3" fill="#F6A035"></rect></g><g transform="translate(2304.6,442.96)"><g stroke="gray" stroke-width="3"><path fill="white" d="M26.5 4.5 a11 11 0 1 0 0 17 "></path><path fill="white" d="M26.5 4.5 a11 11 0 1 1 0 17 "></path><path fill="#F6A035" d="M26.5 4.5 a11 11 0 0 0 0 17 a11 11 0 0 0 0 -17 Z"></path></g></g><g transform="translate(153.64000000000001,775.18)"><rect x="1" y="10.5" width="52" height="6" rx="3" fill="#3D7FA6"></rect></g><g transform="translate(1766.8600000000001,442.96)"><g stroke="gray" stroke-width="3"><path fill="white" d="M26.5 4.5 a11 11 0 1 0 0 17 "></path><path fill="white" d="M26.5 4.5 a11 11 0 1 1 0 17 "></path><path fill="#9EB0A5" d="M26.5 4.5 a11 11 0 0 0 0 17 a11 11 0 0 0 0 -17 Z"></path></g></g><g transform="translate(537.74,885.92)"><rect x="1" y="10.5" width="52" height="6" rx="3" fill="#3D7FA6"></rect></g><g transform="translate(614.5600000000001,1218.1399999999999)"><g fill="#3D7FA6" stroke="#3D7FA6"><rect x="15" y="2" width="5" height="23" rx="1" ry="1"></rect><rect x="24" y="2" width="5" height="5" rx="1" ry="1"></rect><rect x="33" y="2" width="5" height="5" rx="1" ry="1"></rect></g></g><g transform="translate(691.38,1827.21)"><rect x="1" y="10.5" width="52" height="6" rx="3" fill="#638B66"></rect></g><g transform="translate(691.38,830.55)"><g stroke="#638B66" stroke-width="3" fill="none" stroke-linecap="round"><path d="M33 5 L33 2 L19 2 L19 2.5 L26 13.5 L19 24.5 L19 25 L33 25 L33 22 "></path></g></g><g transform="translate(76.82000000000001,830.55)"><circle cx="31" cy="13" r="11" fill="#F59A9A"></circle></g><g transform="translate(768.2,1827.21)"><g stroke="gray" stroke-width="3"><path fill="#845578" d="M26.5 4.5 a11 11 0 1 0 0 17 "></path><path fill="white" d="M26.5 4.5 a11 11 0 1 1 0 17 "></path><path fill="#845578" d="M26.5 4.5 a11 11 0 0 0 0 17 a11 11 0 0 0 0 -17 Z"></path></g></g><g transform="translate(307.28000000000003,332.21999999999997)"><g stroke="gray" stroke-width="3"><path fill="white" d="M26.5 4.5 a11 11 0 1 0 0 17 "></path><path fill="white" d="M26.5 4.5 a11 11 0 1 1 0 17 "></path><path fill="#4F6980" d="M26.5 4.5 a11 11 0 0 0 0 17 a11 11 0 0 0 0 -17 Z"></path></g></g><g transform="translate(76.82000000000001,442.96)"><circle cx="31" cy="13" r="11" fill="#8BC2CA"></circle></g><g transform="translate(691.38,1605.73)"><rect x="1" y="10.5" width="52" height="6" rx="3" fill="#F6A035"></rect></g><g transform="translate(845.02,830.55)"><rect x="1" y="10.5" width="52" height="6" rx="3" fill="#C3BB3D"></rect></g><g transform="translate(921.84,1107.4)"><g stroke="gray" stroke-width="3"><path fill="#86AF6A" d="M26.5 4.5 a11 11 0 1 0 0 17 "></path><path fill="#86AF6A" d="M26.5 4.5 a11 11 0 1 1 0 17 "></path><path fill="#86AF6A" d="M26.5 4.5 a11 11 0 0 0 0 17 a11 11 0 0 0 0 -17 Z"></path></g></g><g transform="translate(2688.7000000000003,332.21999999999997)"><g stroke="gray" stroke-width="3"><path fill="white" d="M26.5 4.5 a11 11 0 1 0 0 17 "></path><path fill="white" d="M26.5 4.5 a11 11 0 1 1 0 17 "></path><path fill="#86AF6A" d="M26.5 4.5 a11 11 0 0 0 0 17 a11 11 0 0 0 0 -17 Z"></path></g></g><g transform="translate(1920.5,332.21999999999997)"><g stroke="gray" stroke-width="3"><path fill="#EFC637" d="M26.5 4.5 a11 11 0 1 0 0 17 "></path><path fill="white" d="M26.5 4.5 a11 11 0 1 1 0 17 "></path><path fill="#EFC637" d="M26.5 4.5 a11 11 0 0 0 0 17 a11 11 0 0 0 0 -17 Z"></path></g></g><g transform="translate(768.2,885.92)"><g stroke="gray" stroke-width="3"><path fill="white" d="M26.5 4.5 a11 11 0 1 0 0 17 "></path><path fill="#B9AA98" d="M26.5 4.5 a11 11 0 1 1 0 17 "></path><path fill="white" d="M26.5 4.5 a11 11 0 0 0 0 17 a11 11 0 0 0 0 -17 Z"></path></g></g><g transform="translate(1459.5800000000002,1661.1)"><rect x="1" y="10.5" width="52" height="6" rx="3" fill="#499893"></rect></g><g transform="translate(537.74,1384.25)"><rect x="1" y="10.5" width="52" height="6" rx="3" fill="#7DC4AE"></rect></g><g transform="translate(1613.22,332.21999999999997)"><g stroke="gray" stroke-width="3"><path fill="#638B66" d="M26.5 4.5 a11 11 0 1 0 0 17 "></path><path fill="white" d="M26.5 4.5 a11 11 0 1 1 0 17 "></path><path fill="#638B66" d="M26.5 4.5 a11 11 0 0 0 0 17 a11 11 0 0 0 0 -17 Z"></path></g></g><g transform="translate(1382.76,332.21999999999997)"><g stroke="#62AEA1" stroke-width="3" fill="none" stroke-linecap="round"><path d="M33 5 L33 2 L19 2 L19 2.5 L26 13.5 L19 24.5 L19 25 L33 25 L33 22 "></path></g></g><g transform="translate(153.64000000000001,719.81)"><rect x="1" y="10.5" width="52" height="6" rx="3" fill="#499893"></rect></g><g transform="translate(921.84,1162.77)"><g stroke="#F6A035" stroke-width="3" fill="none" stroke-linecap="round"><path d="M33 5 L33 2 L19 2 L19 2.5 L26 13.5 L19 24.5 L19 25 L33 25 L33 22 "></path></g></g><g transform="translate(614.5600000000001,1661.1)"><g fill="#F59A9A" stroke="#F59A9A"><rect x="15" y="2" width="5" height="23" rx="1" ry="1"></rect><rect x="24" y="2" width="5" height="5" rx="1" ry="1"></rect><rect x="33" y="2" width="5" height="5" rx="1" ry="1"></rect></g></g><g transform="translate(921.84,1771.84)"><g stroke="gray" stroke-width="3"><path fill="#499893" d="M26.5 4.5 a11 11 0 1 0 0 17 "></path><path fill="white" d="M26.5 4.5 a11 11 0 1 1 0 17 "></path><path fill="#499893" d="M26.5 4.5 a11 11 0 0 0 0 17 a11 11 0 0 0 0 -17 Z"></path></g></g><g transform="translate(1459.5800000000002,1716.47)"><rect x="1" y="10.5" width="52" height="6" rx="3" fill="#7E756D"></rect></g><g transform="translate(1382.76,719.81)"><rect x="1" y="10.5" width="52" height="6" rx="3" fill="#F6A035"></rect></g><g transform="translate(1382.76,1661.1)"><circle cx="31" cy="13" r="11" fill="#3D7FA6"></circle></g><g transform="translate(230.46,276.85)"><g stroke="#9EB0A5" stroke-width="3" fill="none" stroke-linecap="round"><path d="M33 5 L33 2 L19 2 L19 2.5 L26 13.5 L19 24.5 L19 25 L33 25 L33 22 "></path></g></g><g transform="translate(614.5600000000001,1716.47)"><g fill="#7DC4AE" stroke="#7DC4AE"><rect x="15" y="2" width="5" height="23" rx="1" ry="1"></rect><rect x="24" y="2" width="5" height="5" rx="1" ry="1"></rect><rect x="33" y="2" width="5" height="5" rx="1" ry="1"></rect></g></g><g transform="translate(1766.8600000000001,332.21999999999997)"><g stroke="gray" stroke-width="3"><path fill="white" d="M26.5 4.5 a11 11 0 1 0 0 17 "></path><path fill="white" d="M26.5 4.5 a11 11 0 1 1 0 17 "></path><path fill="#B9AA98" d="M26.5 4.5 a11 11 0 0 0 0 17 a11 11 0 0 0 0 -17 Z"></path></g></g><g transform="translate(768.2,1328.8799999999999)"><g stroke="gray" stroke-width="3"><path fill="white" d="M26.5 4.5 a11 11 0 1 0 0 17 "></path><path fill="white" d="M26.5 4.5 a11 11 0 1 1 0 17 "></path><path fill="#B56252" d="M26.5 4.5 a11 11 0 0 0 0 17 a11 11 0 0 0 0 -17 Z"></path></g></g><g transform="translate(768.2,1052.03)"><rect x="1" y="10.5" width="52" height="6" rx="3" fill="#3D7FA6"></rect></g><g transform="translate(153.64000000000001,332.21999999999997)"><rect x="1" y="10.5" width="52" height="6" rx="3" fill="#F59A9A"></rect></g><g transform="translate(614.5600000000001,885.92)"><rect x="1" y="10.5" width="52" height="6" rx="3" fill="#C497B7"></rect></g><g transform="translate(2150.96,1052.03)"><g stroke="#845578" stroke-width="3" fill="none" stroke-linecap="round"><path d="M33 5 L33 2 L19 2 L19 2.5 L26 13.5 L19 24.5 L19 25 L33 25 L33 22 "></path></g></g><g transform="translate(1229.1200000000001,332.21999999999997)"><g fill="#C497B7" stroke="#C497B7"><rect x="15" y="0" width="12" height="3" rx="1" ry="1"></rect><rect x="15" y="7" width="25" height="14" rx="1" ry="1"></rect></g></g><g transform="translate(1075.48,1052.03)"><g stroke="gray" stroke-width="3"><path fill="#CD677F" d="M26.5 4.5 a11 11 0 1 0 0 17 "></path><path fill="#CD677F" d="M26.5 4.5 a11 11 0 1 1 0 17 "></path><path fill="#CD677F" d="M26.5 4.5 a11 11 0 0 0 0 17 a11 11 0 0 0 0 -17 Z"></path></g></g><g transform="translate(307.28000000000003,442.96)"><rect x="1" y="10.5" width="52" height="6" rx="3" fill="#4F6980"></rect></g><g transform="translate(691.38,1716.47)"><rect x="1" y="10.5" width="52" height="6" rx="3" fill="#7DC4AE"></rect></g><g transform="translate(614.5600000000001,1328.8799999999999)"><g fill="#499893" stroke="#499893"><rect x="15" y="2" width="5" height="23" rx="1" ry="1"></rect><rect x="24" y="2" width="5" height="5" rx="1" ry="1"></rect><rect x="33" y="2" width="5" height="5" rx="1" ry="1"></rect></g></g><g transform="translate(1152.3,387.59)"><rect x="1" y="10.5" width="52" height="6" rx="3" fill="#62AEA1"></rect></g><g transform="translate(537.74,1107.4)"><rect x="1" y="10.5" width="52" height="6" rx="3" fill="#EFC637"></rect></g><g transform="translate(537.74,664.4399999999999)"><g stroke="gray" stroke-width="3"><path fill="#F37941" d="M26.5 4.5 a11 11 0 1 0 0 17 "></path><path fill="white" d="M26.5 4.5 a11 11 0 1 1 0 17 "></path><path fill="#F37941" d="M26.5 4.5 a11 11 0 0 0 0 17 a11 11 0 0 0 0 -17 Z"></path></g></g><g transform="translate(998.6600000000001,775.18)"><rect x="1" y="10.5" width="52" height="6" rx="3" fill="#86AF6A"></rect></g><g transform="translate(614.5600000000001,1771.84)"><g fill="#3D7FA6" stroke="#3D7FA6"><rect x="15" y="2" width="5" height="23" rx="1" ry="1"></rect><rect x="24" y="2" width="5" height="5" rx="1" ry="1"></rect><rect x="33" y="2" width="5" height="5" rx="1" ry="1"></rect></g></g><g transform="translate(1305.94,332.21999999999997)"><rect x="1" y="10.5" width="52" height="6" rx="3" fill="#8BC2CA"></rect></g><g transform="translate(76.82000000000001,221.48)"><circle cx="31" cy="13" r="11" fill="#3D7FA6"></circle></g><g transform="translate(2995.98,166.10999999999999)"><g stroke="#3D7FA6" stroke-width="3" fill="none" stroke-linecap="round"><path d="M33 5 L33 2 L19 2 L19 2.5 L26 13.5 L19 24.5 L19 25 L33 25 L33 22 "></path></g></g><g transform="translate(691.38,1882.58)"><rect x="1" y="10.5" width="52" height="6" rx="3" fill="#C497B7"></rect></g><g transform="translate(691.38,1771.84)"><rect x="1" y="10.5" width="52" height="6" rx="3" fill="#62AEA1"></rect></g><g transform="translate(768.2,830.55)"><g stroke="gray" stroke-width="3"><path fill="#C3BB3D" d="M26.5 4.5 a11 11 0 1 0 0 17 "></path><path fill="white" d="M26.5 4.5 a11 11 0 1 1 0 17 "></path><path fill="white" d="M26.5 4.5 a11 11 0 0 0 0 17 a11 11 0 0 0 0 -17 Z"></path></g></g><g transform="translate(691.38,1218.1399999999999)"><rect x="1" y="10.5" width="52" height="6" rx="3" fill="#3D7FA6"></rect></g><g transform="translate(537.74,1605.73)"><rect x="1" y="10.5" width="52" height="6" rx="3" fill="#9EB0A5"></rect></g><g transform="translate(1382.76,1716.47)"><circle cx="31" cy="13" r="11" fill="#B56252"></circle></g><g transform="translate(76.82000000000001,775.18)"><circle cx="31" cy="13" r="11" fill="#3D7FA6"></circle></g><g transform="translate(691.38,1494.99)"><rect x="1" y="10.5" width="52" height="6" rx="3" fill="#F6A035"></rect></g><g transform="translate(230.46,221.48)"><rect x="1" y="10.5" width="52" height="6" rx="3" fill="#3D7FA6"></rect></g><g transform="translate(845.02,885.92)"><rect x="1" y="10.5" width="52" height="6" rx="3" fill="#B9AA98"></rect></g><g transform="translate(0,332.21999999999997)"><circle cx="31" cy="13" r="11" fill="#CD677F"></circle></g><g transform="translate(2381.42,442.96)"><rect x="1" y="10.5" width="52" height="6" rx="3" fill="#F6A035"></rect></g><g transform="translate(537.74,1494.99)"><rect x="1" y="10.5" width="52" height="6" rx="3" fill="#638B66"></rect></g><g transform="translate(845.02,1328.8799999999999)"><rect x="1" y="10.5" width="52" height="6" rx="3" fill="#86AF6A"></rect></g><g transform="translate(691.38,1937.95)"><rect x="1" y="10.5" width="52" height="6" rx="3" fill="#9EB0A5"></rect></g><g transform="translate(384.1,332.21999999999997)"><g stroke="gray" stroke-width="3"><path fill="white" d="M26.5 4.5 a11 11 0 1 0 0 17 "></path><path fill="white" d="M26.5 4.5 a11 11 0 1 1 0 17 "></path><path fill="#62AEA1" d="M26.5 4.5 a11 11 0 0 0 0 17 a11 11 0 0 0 0 -17 Z"></path></g></g><g transform="translate(2381.42,332.21999999999997)"><rect x="1" y="10.5" width="52" height="6" rx="3" fill="#86AF6A"></rect></g><g transform="translate(3072.8,276.85)"><g fill="#F6A035" stroke="#F6A035"><rect x="12" y="1" width="23" height="6" rx="1" ry="1"></rect><rect x="19.666666666666668" y="10" width="23" height="6" rx="1" ry="1"></rect><rect x="12" y="19" width="23" height="6" rx="1" ry="1"></rect></g></g><g transform="translate(1690.04,332.21999999999997)"><rect x="1" y="10.5" width="52" height="6" rx="3" fill="#638B66"></rect></g><g transform="translate(1382.76,941.29)"><g stroke="gray" stroke-width="3"><path fill="#845578" d="M26.5 4.5 a11 11 0 1 0 0 17 "></path><path fill="#845578" d="M26.5 4.5 a11 11 0 1 1 0 17 "></path><path fill="#845578" d="M26.5 4.5 a11 11 0 0 0 0 17 a11 11 0 0 0 0 -17 Z"></path></g></g><g transform="translate(614.5600000000001,1605.73)"><g fill="#F6A035" stroke="#F6A035"><rect x="15" y="2" width="5" height="23" rx="1" ry="1"></rect><rect x="24" y="2" width="5" height="5" rx="1" ry="1"></rect><rect x="33" y="2" width="5" height="5" rx="1" ry="1"></rect></g></g><g transform="translate(768.2,996.66)"><g stroke="#7E756D" stroke-width="3" fill="none" stroke-linecap="round"><path d="M33 5 L33 2 L19 2 L19 2.5 L26 13.5 L19 24.5 L19 25 L33 25 L33 22 "></path></g></g><g transform="translate(1229.1200000000001,996.66)"><g stroke="gray" stroke-width="3"><path fill="#8BC2CA" d="M26.5 4.5 a11 11 0 1 0 0 17 "></path><path fill="#8BC2CA" d="M26.5 4.5 a11 11 0 1 1 0 17 "></path><path fill="#8BC2CA" d="M26.5 4.5 a11 11 0 0 0 0 17 a11 11 0 0 0 0 -17 Z"></path></g></g><g transform="translate(2227.78,442.96)"><rect x="1" y="10.5" width="52" height="6" rx="3" fill="#638B66"></rect></g><g transform="translate(153.64000000000001,553.7)"><rect x="1" y="10.5" width="52" height="6" rx="3" fill="#CD677F"></rect></g><g transform="translate(1536.4,332.21999999999997)"><rect x="1" y="10.5" width="52" height="6" rx="3" fill="#C497B7"></rect></g><g transform="translate(1152.3,775.18)"><rect x="1" y="10.5" width="52" height="6" rx="3" fill="#CD677F"></rect></g><g transform="translate(768.2,941.29)"><g stroke="gray" stroke-width="3"><path fill="white" d="M26.5 4.5 a11 11 0 1 0 0 17 "></path><path fill="white" d="M26.5 4.5 a11 11 0 1 1 0 17 "></path><path fill="#7DC4AE" d="M26.5 4.5 a11 11 0 0 0 0 17 a11 11 0 0 0 0 -17 Z"></path></g></g><g transform="translate(537.74,332.21999999999997)"><rect x="1" y="10.5" width="52" height="6" rx="3" fill="#62AEA1"></rect></g><g transform="translate(691.38,1328.8799999999999)"><g stroke="gray" stroke-width="3"><path fill="white" d="M26.5 4.5 a11 11 0 1 0 0 17 "></path><path fill="white" d="M26.5 4.5 a11 11 0 1 1 0 17 "></path><path fill="#7E756D" d="M26.5 4.5 a11 11 0 0 0 0 17 a11 11 0 0 0 0 -17 Z"></path></g></g><g transform="translate(384.1,221.48)"><g stroke="gray" stroke-width="3"><path fill="white" d="M26.5 4.5 a11 11 0 1 0 0 17 "></path><path fill="#499893" d="M26.5 4.5 a11 11 0 1 1 0 17 "></path><path fill="white" d="M26.5 4.5 a11 11 0 0 0 0 17 a11 11 0 0 0 0 -17 Z"></path></g></g><g transform="translate(537.74,830.55)"><rect x="1" y="10.5" width="52" height="6" rx="3" fill="#CD677F"></rect></g><g transform="translate(1075.48,775.18)"><g stroke="gray" stroke-width="3"><path fill="#CD677F" d="M26.5 4.5 a11 11 0 1 0 0 17 "></path><path fill="#CD677F" d="M26.5 4.5 a11 11 0 1 1 0 17 "></path><path fill="#CD677F" d="M26.5 4.5 a11 11 0 0 0 0 17 a11 11 0 0 0 0 -17 Z"></path></g></g><g transform="translate(2150.96,332.21999999999997)"><rect x="1" y="10.5" width="52" height="6" rx="3" fill="#499893"></rect></g><g transform="translate(1229.1200000000001,719.81)"><g stroke="#845578" stroke-width="3" fill="none" stroke-linecap="round"><path d="M33 5 L33 2 L19 2 L19 2.5 L26 13.5 L19 24.5 L19 25 L33 25 L33 22 "></path></g></g><g transform="translate(921.84,941.29)"><g fill="#3D7FA6" stroke="#3D7FA6"><rect x="12" y="1" width="23" height="6" rx="1" ry="1"></rect><rect x="19.666666666666668" y="10" width="23" height="6" rx="1" ry="1"></rect><rect x="12" y="19" width="23" height="6" rx="1" ry="1"></rect></g></g><g transform="translate(2919.1600000000003,332.21999999999997)"><g stroke="#F6A035" stroke-width="3" fill="none" stroke-linecap="round"><path d="M33 5 L33 2 L19 2 L19 2.5 L26 13.5 L19 24.5 L19 25 L33 25 L33 22 "></path></g></g><g transform="translate(2074.14,332.21999999999997)"><g stroke="gray" stroke-width="3"><path fill="#499893" d="M26.5 4.5 a11 11 0 1 0 0 17 "></path><path fill="white" d="M26.5 4.5 a11 11 0 1 1 0 17 "></path><path fill="#499893" d="M26.5 4.5 a11 11 0 0 0 0 17 a11 11 0 0 0 0 -17 Z"></path></g></g><g transform="translate(153.64000000000001,664.4399999999999)"><rect x="1" y="10.5" width="52" height="6" rx="3" fill="#efc637"></rect></g><g transform="translate(614.5600000000001,1937.95)"><g fill="#8BC2CA" stroke="#8BC2CA"><rect x="15" y="2" width="5" height="23" rx="1" ry="1"></rect><rect x="24" y="2" width="5" height="5" rx="1" ry="1"></rect><rect x="33" y="2" width="5" height="5" rx="1" ry="1"></rect></g></g><g transform="translate(76.82000000000001,332.21999999999997)"><rect x="1" y="10.5" width="52" height="6" rx="3" fill="#3D7FA6"></rect></g><g transform="translate(614.5600000000001,1384.25)"><g fill="#845578" stroke="#845578"><rect x="15" y="2" width="5" height="23" rx="1" ry="1"></rect><rect x="24" y="2" width="5" height="5" rx="1" ry="1"></rect><rect x="33" y="2" width="5" height="5" rx="1" ry="1"></rect></g></g><g transform="translate(2842.34,332.21999999999997)"><g fill="#845578" stroke="#845578"><rect x="12" y="1" width="23" height="6" rx="1" ry="1"></rect><rect x="19.666666666666668" y="10" width="23" height="6" rx="1" ry="1"></rect><rect x="12" y="19" width="23" height="6" rx="1" ry="1"></rect></g></g><g transform="translate(76.82000000000001,553.7)"><circle cx="31" cy="13" r="11" fill="#845578"></circle></g><g transform="translate(845.02,1494.99)"><g stroke="gray" stroke-width="3"><path fill="white" d="M26.5 4.5 a11 11 0 1 0 0 17 "></path><path fill="white" d="M26.5 4.5 a11 11 0 1 1 0 17 "></path><path fill="#8BC2CA" d="M26.5 4.5 a11 11 0 0 0 0 17 a11 11 0 0 0 0 -17 Z"></path></g></g><g transform="translate(1305.94,996.66)"><rect x="1" y="10.5" width="52" height="6" rx="3" fill="#8BC2CA"></rect></g><g transform="translate(768.2,1494.99)"><g stroke="gray" stroke-width="3"><path fill="white" d="M26.5 4.5 a11 11 0 1 0 0 17 "></path><path fill="white" d="M26.5 4.5 a11 11 0 1 1 0 17 "></path><path fill="#CD677F" d="M26.5 4.5 a11 11 0 0 0 0 17 a11 11 0 0 0 0 -17 Z"></path></g></g><g transform="translate(76.82000000000001,664.4399999999999)"><circle cx="31" cy="13" r="11" fill="#F6A035"></circle></g><g transform="translate(2304.6,332.21999999999997)"><g stroke="gray" stroke-width="3"><path fill="white" d="M26.5 4.5 a11 11 0 1 0 0 17 "></path><path fill="#86AF6A" d="M26.5 4.5 a11 11 0 1 1 0 17 "></path><path fill="white" d="M26.5 4.5 a11 11 0 0 0 0 17 a11 11 0 0 0 0 -17 Z"></path></g></g><g transform="translate(614.5600000000001,1550.36)"><g fill="#3D7FA6" stroke="#3D7FA6"><rect x="15" y="2" width="5" height="23" rx="1" ry="1"></rect><rect x="24" y="2" width="5" height="5" rx="1" ry="1"></rect><rect x="33" y="2" width="5" height="5" rx="1" ry="1"></rect></g></g><g transform="translate(1997.3200000000002,332.21999999999997)"><rect x="1" y="10.5" width="52" height="6" rx="3" fill="#EFC637"></rect></g><g transform="translate(998.6600000000001,830.55)"><rect x="1" y="10.5" width="52" height="6" rx="3" fill="#F6A035"></rect></g><g transform="translate(537.74,1328.8799999999999)"><rect x="1" y="10.5" width="52" height="6" rx="3" fill="#F59A9A"></rect></g><g transform="translate(307.28000000000003,719.81)"><g fill="#F6A035" stroke="#F6A035"><rect x="12" y="1" width="23" height="6" rx="1" ry="1"></rect><rect x="19.666666666666668" y="10" width="23" height="6" rx="1" ry="1"></rect><rect x="12" y="19" width="23" height="6" rx="1" ry="1"></rect></g></g><g transform="translate(768.2,1716.47)"><g stroke="gray" stroke-width="3"><path fill="#F6A035" d="M26.5 4.5 a11 11 0 1 0 0 17 "></path><path fill="white" d="M26.5 4.5 a11 11 0 1 1 0 17 "></path><path fill="#F6A035" d="M26.5 4.5 a11 11 0 0 0 0 17 a11 11 0 0 0 0 -17 Z"></path></g></g><g transform="translate(537.74,996.66)"><rect x="1" y="10.5" width="52" height="6" rx="3" fill="#86AF6A"></rect></g><g transform="translate(998.6600000000001,1439.62)"><rect x="1" y="10.5" width="52" height="6" rx="3" fill="#F6A035"></rect></g><g transform="translate(1613.22,1661.1)"><rect x="1" y="10.5" width="52" height="6" rx="3" fill="#B56252"></rect></g><g transform="translate(76.82000000000001,885.92)"><circle cx="31" cy="13" r="11" fill="#F6A035"></circle></g><g transform="translate(3149.6200000000003,276.85)"><rect x="1" y="10.5" width="52" height="6" rx="3" fill="#F6A035"></rect></g><g transform="translate(3226.44,276.85)"><rect x="4" y="3" rx="1" ry="1" width="20" height="20" fill="#666"></rect></g><g transform="translate(2227.78,1052.03)"><rect x="1" y="10.5" width="52" height="6" rx="3" fill="#845578"></rect></g><g transform="translate(537.74,1162.77)"><rect x="1" y="10.5" width="52" height="6" rx="3" fill="#F6A035"></rect></g><g transform="translate(153.64000000000001,276.85)"><rect x="1" y="10.5" width="52" height="6" rx="3" fill="#86AF6A"></rect></g><g transform="translate(845.02,941.29)"><rect x="1" y="10.5" width="52" height="6" rx="3" fill="#7DC4AE"></rect></g><g transform="translate(537.74,1550.36)"><rect x="1" y="10.5" width="52" height="6" rx="3" fill="#C497B7"></rect></g><g transform="translate(2227.78,332.21999999999997)"><rect x="1" y="10.5" width="52" height="6" rx="3" fill="#86AF6A"></rect></g><g transform="translate(1152.3,609.0699999999999)"><rect x="1" y="10.5" width="52" height="6" rx="3" fill="#F6A035"></rect></g><g transform="translate(691.38,1550.36)"><rect x="1" y="10.5" width="52" height="6" rx="3" fill="#3D7FA6"></rect></g><g transform="translate(537.74,1052.03)"><rect x="1" y="10.5" width="52" height="6" rx="3" fill="#845578"></rect></g><g transform="translate(1075.48,332.21999999999997)"><rect x="1" y="10.5" width="52" height="6" rx="3" fill="#F59A9A"></rect></g><g transform="translate(537.74,553.7)"><rect x="1" y="10.5" width="52" height="6" rx="3" fill="#62AEA1"></rect></g><g transform="translate(2765.52,332.21999999999997)"><rect x="1" y="10.5" width="52" height="6" rx="3" fill="#86AF6A"></rect></g><g transform="translate(76.82000000000001,719.81)"><circle cx="31" cy="13" r="11" fill="#3D7FA6"></circle></g><g transform="translate(2611.88,276.85)"><g stroke="#F6A035" stroke-width="3" fill="none" stroke-linecap="round"><path d="M33 5 L33 2 L19 2 L19 2.5 L26 13.5 L19 24.5 L19 25 L33 25 L33 22 "></path></g></g><g transform="translate(614.5600000000001,1827.21)"><g fill="#86AF6A" stroke="#86AF6A"><rect x="15" y="2" width="5" height="23" rx="1" ry="1"></rect><rect x="24" y="2" width="5" height="5" rx="1" ry="1"></rect><rect x="33" y="2" width="5" height="5" rx="1" ry="1"></rect></g></g><g transform="translate(1843.68,442.96)"><rect x="1" y="10.5" width="52" height="6" rx="3" fill="#9EB0A5"></rect></g><g transform="translate(845.02,1107.4)"><rect x="1" y="10.5" width="52" height="6" rx="3" fill="#F6A035"></rect></g><g transform="translate(153.64000000000001,221.48)"><rect x="1" y="10.5" width="52" height="6" rx="3" fill="#3D7FA6"></rect></g><g transform="translate(1075.48,609.0699999999999)"><g stroke="gray" stroke-width="3"><path fill="white" d="M26.5 4.5 a11 11 0 1 0 0 17 "></path><path fill="white" d="M26.5 4.5 a11 11 0 1 1 0 17 "></path><path fill="#F6A035" d="M26.5 4.5 a11 11 0 0 0 0 17 a11 11 0 0 0 0 -17 Z"></path></g></g><g transform="translate(614.5600000000001,1882.58)"><g fill="#CD677F" stroke="#CD677F"><rect x="15" y="2" width="5" height="23" rx="1" ry="1"></rect><rect x="24" y="2" width="5" height="5" rx="1" ry="1"></rect><rect x="33" y="2" width="5" height="5" rx="1" ry="1"></rect></g></g><g transform="translate(1459.5800000000002,941.29)"><rect x="1" y="10.5" width="52" height="6" rx="3" fill="#845578"></rect></g><g transform="translate(537.74,1273.51)"><rect x="1" y="10.5" width="52" height="6" rx="3" fill="#F6A035"></rect></g><g transform="translate(614.5600000000001,1494.99)"><g fill="#CD677F" stroke="#CD677F"><rect x="15" y="2" width="5" height="23" rx="1" ry="1"></rect><rect x="24" y="2" width="5" height="5" rx="1" ry="1"></rect><rect x="33" y="2" width="5" height="5" rx="1" ry="1"></rect></g></g><g transform="translate(2611.88,442.96)"><rect x="1" y="10.5" width="52" height="6" rx="3" fill="#8BC2CA"></rect></g><g transform="translate(460.92,332.21999999999997)"><rect x="1" y="10.5" width="52" height="6" rx="3" fill="#62AEA1"></rect></g><g transform="translate(2458.2400000000002,332.21999999999997)"><g fill="#3D7FA6" stroke="#3D7FA6"><rect x="12" y="1" width="23" height="6" rx="1" ry="1"></rect><rect x="19.666666666666668" y="10" width="23" height="6" rx="1" ry="1"></rect><rect x="12" y="19" width="23" height="6" rx="1" ry="1"></rect></g></g><g transform="translate(153.64000000000001,830.55)"><rect x="1" y="10.5" width="52" height="6" rx="3" fill="#86AF6A"></rect></g><g transform="translate(2995.98,332.21999999999997)"><rect x="1" y="10.5" width="52" height="6" rx="3" fill="#F6A035"></rect></g><g transform="translate(1843.68,332.21999999999997)"><rect x="1" y="10.5" width="52" height="6" rx="3" fill="#B9AA98"></rect></g><g transform="translate(1305.94,719.81)"><g stroke="gray" stroke-width="3"><path fill="white" d="M26.5 4.5 a11 11 0 1 0 0 17 "></path><path fill="white" d="M26.5 4.5 a11 11 0 1 1 0 17 "></path><path fill="#86AF6A" d="M26.5 4.5 a11 11 0 0 0 0 17 a11 11 0 0 0 0 -17 Z"></path></g></g><g transform="translate(1690.04,442.96)"><g stroke="#F59A9A" stroke-width="3" fill="none" stroke-linecap="round"><path d="M33 5 L33 2 L19 2 L19 2.5 L26 13.5 L19 24.5 L19 25 L33 25 L33 22 "></path></g></g><g transform="translate(537.74,1439.62)"><rect x="1" y="10.5" width="52" height="6" rx="3" fill="#62AEA1"></rect></g><g transform="translate(614.5600000000001,830.55)"><rect x="1" y="10.5" width="52" height="6" rx="3" fill="#638B66"></rect></g><g transform="translate(1459.5800000000002,332.21999999999997)"><g stroke="gray" stroke-width="3"><path fill="white" d="M26.5 4.5 a11 11 0 1 0 0 17 "></path><path fill="white" d="M26.5 4.5 a11 11 0 1 1 0 17 "></path><path fill="#C497B7" d="M26.5 4.5 a11 11 0 0 0 0 17 a11 11 0 0 0 0 -17 Z"></path></g></g><g transform="translate(998.6600000000001,609.0699999999999)"><rect x="1" y="10.5" width="52" height="6" rx="3" fill="#3D7FA6"></rect></g><g transform="translate(845.02,996.66)"><rect x="1" y="10.5" width="52" height="6" rx="3" fill="#7E756D"></rect></g><g transform="translate(614.5600000000001,1439.62)"><g fill="#EFC637" stroke="#EFC637"><rect x="15" y="2" width="5" height="23" rx="1" ry="1"></rect><rect x="24" y="2" width="5" height="5" rx="1" ry="1"></rect><rect x="33" y="2" width="5" height="5" rx="1" ry="1"></rect></g></g><g transform="translate(921.84,1550.36)"><g stroke="gray" stroke-width="3"><path fill="white" d="M26.5 4.5 a11 11 0 1 0 0 17 "></path><path fill="white" d="M26.5 4.5 a11 11 0 1 1 0 17 "></path><path fill="#C3BB3D" d="M26.5 4.5 a11 11 0 0 0 0 17 a11 11 0 0 0 0 -17 Z"></path></g></g><g transform="translate(1229.1200000000001,553.7)"><g stroke="#F6A035" stroke-width="3" fill="none" stroke-linecap="round"><path d="M33 5 L33 2 L19 2 L19 2.5 L26 13.5 L19 24.5 L19 25 L33 25 L33 22 "></path></g></g><g transform="translate(460.92,885.92)"><rect x="1" y="10.5" width="52" height="6" rx="3" fill="#C3BB3D"></rect></g><g transform="translate(153.64000000000001,885.92)"><rect x="1" y="10.5" width="52" height="6" rx="3" fill="#EFC637"></rect></g><g transform="translate(614.5600000000001,996.66)"><rect x="1" y="10.5" width="52" height="6" rx="3" fill="#F37941"></rect></g><g transform="translate(1152.3,1052.03)"><rect x="1" y="10.5" width="52" height="6" rx="3" fill="#CD677F"></rect></g><g transform="translate(1613.22,1716.47)"><rect x="1" y="10.5" width="52" height="6" rx="3" fill="#845578"></rect></g><g transform="translate(2535.06,332.21999999999997)"><rect x="1" y="10.5" width="52" height="6" rx="3" fill="#3D7FA6"></rect></g><g transform="translate(691.38,1052.03)"><g stroke="#3D7FA6" stroke-width="3" fill="none" stroke-linecap="round"><path d="M33 5 L33 2 L19 2 L19 2.5 L26 13.5 L19 24.5 L19 25 L33 25 L33 22 "></path></g></g><g transform="translate(845.02,1882.58)"><g stroke="gray" stroke-width="3"><path fill="#EFC637" d="M26.5 4.5 a11 11 0 1 0 0 17 "></path><path fill="white" d="M26.5 4.5 a11 11 0 1 1 0 17 "></path><path fill="#EFC637" d="M26.5 4.5 a11 11 0 0 0 0 17 a11 11 0 0 0 0 -17 Z"></path></g></g><g transform="translate(2919.1600000000003,166.10999999999999)"><rect x="1" y="10.5" width="52" height="6" rx="3" fill="#499893"></rect></g></g></svg>